<svg width="30" height="23" viewBox="0 0 30 23" fill="none" xmlns="http://www.w3.org/2000/svg">
<path d="M25.3961 1.8954C23.4512 1.00272 21.3987 0.366178 19.29 0.00170576C19.2708 -0.00204044 19.2509 0.00041986 19.2331 0.00873205C19.2154 0.0170442 19.2007 0.0307786 19.1913 0.0479543C18.9288 0.516691 18.6363 1.12792 18.4313 1.61041C16.1582 1.26515 13.8459 1.26515 11.5728 1.61041C11.3446 1.0758 11.0872 0.55419 10.8015 0.0479543C10.7917 0.0311633 10.777 0.0177543 10.7593 0.00949735C10.7417 0.00124037 10.722 -0.00147638 10.7028 0.00170576C8.59391 0.36542 6.54132 1.002 4.59672 1.8954C4.58025 1.90231 4.5663 1.91408 4.55672 1.92915C0.666832 7.74023 -0.399388 13.4076 0.124347 19.0037C0.125619 19.0175 0.129712 19.031 0.136375 19.0433C0.143038 19.0555 0.15213 19.0663 0.163096 19.0749C2.42752 20.7526 4.9606 22.0333 7.65413 22.8623C7.67312 22.8678 7.69332 22.8674 7.71208 22.8611C7.73083 22.8549 7.74724 22.8431 7.75913 22.8273C8.33661 22.0398 8.85159 21.2086 9.29158 20.3349C9.29773 20.3229 9.30127 20.3098 9.30199 20.2964C9.3027 20.283 9.30057 20.2696 9.29573 20.2571C9.29088 20.2446 9.28344 20.2332 9.2739 20.2238C9.26435 20.2144 9.25291 20.2071 9.24033 20.2024C8.43213 19.8931 7.64971 19.5203 6.9004 19.0874C6.88667 19.0795 6.87511 19.0682 6.86675 19.0548C6.8584 19.0413 6.85351 19.0259 6.85252 19.0101C6.85153 18.9942 6.85447 18.9784 6.86108 18.964C6.86769 18.9496 6.87776 18.937 6.8904 18.9274C7.0482 18.8094 7.20323 18.6877 7.35539 18.5624C7.3687 18.5516 7.38475 18.5447 7.40174 18.5425C7.41874 18.5403 7.43601 18.5429 7.45164 18.5499C12.3615 20.7911 17.6763 20.7911 22.5287 18.5499C22.5445 18.5426 22.562 18.5399 22.5792 18.5421C22.5965 18.5444 22.6128 18.5514 22.6262 18.5624C22.7762 18.6849 22.9337 18.8099 23.0924 18.9274C23.1049 18.9368 23.1149 18.9492 23.1216 18.9634C23.1282 18.9775 23.1313 18.9931 23.1306 19.0088C23.1298 19.0244 23.1253 19.0396 23.1173 19.0531C23.1094 19.0666 23.0983 19.0779 23.0849 19.0862C22.3373 19.5231 21.5542 19.8961 20.7437 20.2011C20.7311 20.206 20.7197 20.2134 20.7101 20.2229C20.7006 20.2325 20.6931 20.2439 20.6883 20.2566C20.6835 20.2692 20.6813 20.2827 20.6821 20.2962C20.6828 20.3097 20.6863 20.3228 20.6925 20.3349C21.1425 21.2073 21.6575 22.0373 22.2237 22.826C22.2354 22.8421 22.2518 22.8541 22.2706 22.8604C22.2894 22.8667 22.3097 22.8669 22.3287 22.861C25.0267 22.0346 27.5639 20.7538 29.831 19.0737C29.842 19.0658 29.8513 19.0558 29.8582 19.0442C29.8651 19.0325 29.8694 19.0196 29.871 19.0062C30.496 12.5351 28.8235 6.91401 25.4349 1.93165C25.4269 1.91485 25.4132 1.90151 25.3961 1.89415V1.8954ZM10.0253 15.595C8.5466 15.595 7.32914 14.2388 7.32914 12.5713C7.32914 10.9051 8.52411 9.54768 10.0253 9.54768C11.5378 9.54768 12.7452 10.9176 12.7215 12.5726C12.7215 14.2388 11.5265 15.595 10.0253 15.595ZM19.9938 15.595C18.5151 15.595 17.2976 14.2388 17.2976 12.5713C17.2976 10.9051 18.4913 9.54768 19.9938 9.54768C21.5062 9.54768 22.7137 10.9176 22.6899 12.5726C22.6899 14.2388 21.5075 15.595 19.9938 15.595Z" fill="#5865F2"/>
</svg>
