<svg width="30" height="22" viewBox="0 0 30 22" fill="none" xmlns="http://www.w3.org/2000/svg">
<path d="M30 18.5185V2.6455C30 1.18166 28.8183 0 27.3545 0H2.6455C1.18166 0 0 1.18166 0 2.6455V18.5185C0 19.9824 1.18166 21.164 2.6455 21.164H27.3545C28.8183 21.164 30 19.9824 30 18.5185ZM27.6896 2.4515C28.2716 3.03351 27.9541 3.63316 27.6367 3.93298L20.4762 10.4938L27.3545 17.6543C27.5661 17.9012 27.7072 18.2892 27.4603 18.5538C27.231 18.836 26.7019 18.8183 26.4727 18.642L18.7654 12.0635L14.9912 15.5026L11.2346 12.0635L3.52734 18.642C3.29806 18.8183 2.76896 18.836 2.53968 18.5538C2.29277 18.2892 2.43386 17.9012 2.6455 17.6543L9.52381 10.4938L2.36332 3.93298C2.04586 3.63316 1.72839 3.03351 2.31041 2.4515C2.89242 1.86949 3.49206 2.15168 3.98589 2.57496L14.9912 11.4638L26.0141 2.57496C26.5079 2.15168 27.1076 1.86949 27.6896 2.4515Z" fill="#00A4EF"/>
</svg>
