<svg width="30" height="30" viewBox="0 0 30 30" fill="none" xmlns="http://www.w3.org/2000/svg">
<path fill-rule="evenodd" clip-rule="evenodd" d="M15 30C23.2841 30 30 23.2841 30 15C30 6.71591 23.2841 0 15 0C6.71591 0 0 6.71591 0 15C0 23.2841 6.71591 30 15 30ZM19.4905 18.0095C19.7476 18.2579 20.0921 18.3954 20.4496 18.3923C20.8072 18.3892 21.1492 18.2458 21.402 17.9929C21.6549 17.7401 21.7983 17.3981 21.8014 17.0405C21.8045 16.683 21.667 16.3385 21.4186 16.0814L15.9641 10.6268C15.7084 10.3712 15.3616 10.2276 15 10.2276C14.6384 10.2276 14.2916 10.3712 14.0359 10.6268L8.58136 16.0814C8.33297 16.3385 8.19552 16.683 8.19863 17.0405C8.20173 17.3981 8.34515 17.7401 8.59797 17.9929C8.8508 18.2458 9.19282 18.3892 9.55036 18.3923C9.9079 18.3954 10.2524 18.2579 10.5095 18.0095L15 13.5191L19.4905 18.0095Z" fill="black"/>
</svg>
