<svg width="30" height="30" viewBox="0 0 30 30" fill="none" xmlns="http://www.w3.org/2000/svg">
<path fill-rule="evenodd" clip-rule="evenodd" d="M15 0C6.71591 0 0 6.71591 0 15C0 23.2841 6.71591 30 15 30C23.2841 30 30 23.2841 30 15C30 6.71591 23.2841 0 15 0ZM10.5095 11.9905C10.2524 11.7421 9.9079 11.6046 9.55036 11.6077C9.19282 11.6108 8.8508 11.7542 8.59797 12.0071C8.34515 12.2599 8.20173 12.6019 8.19863 12.9595C8.19552 13.317 8.33297 13.6615 8.58136 13.9186L14.0359 19.3732C14.2916 19.6288 14.6384 19.7724 15 19.7724C15.3616 19.7724 15.7084 19.6288 15.9641 19.3732L21.4186 13.9186C21.667 13.6615 21.8045 13.317 21.8014 12.9595C21.7983 12.6019 21.6549 12.2599 21.402 12.0071C21.1492 11.7542 20.8072 11.6108 20.4496 11.6077C20.0921 11.6046 19.7476 11.7421 19.4905 11.9905L15 16.4809L10.5095 11.9905Z" fill="black"/>
</svg>
