<svg width="25" height="20" viewBox="0 0 25 20" fill="none" xmlns="http://www.w3.org/2000/svg">
<path d="M17.2264 0H7.27264C7.27264 0 6.02765 0 6.02765 1.25H18.4714C18.4714 0 17.2264 0 17.2264 0ZM20.9601 3.75C20.9601 2.5 19.7164 2.5 19.7164 2.5H4.7839C4.7839 2.5 3.54015 2.5 3.54015 3.75V5H20.9601V3.75ZM23.4476 5L22.7126 4.26V6.25H1.78765V4.26L1.0514 5C0.31515 5.74 -0.21235 5.9375 0.0838999 7.5C0.3789 9.0575 1.80765 17.595 2.02015 18.75C2.25265 20.0175 3.5414 20 3.5414 20H20.9614C20.9614 20 22.2489 20.0175 22.4826 18.75C22.6951 17.595 24.1226 9.0575 24.4189 7.5C24.7126 5.9375 24.1851 5.74 23.4476 5ZM17.2501 12.4962C17.2501 13.1887 16.6889 13.75 15.9964 13.75H8.50389C8.17138 13.75 7.85248 13.6179 7.61736 13.3828C7.38224 13.1477 7.25014 12.8288 7.25014 12.4962V9.99999H8.50014V12.5H16.0001V9.99999H17.2501V12.4962Z" fill="black"/>
</svg>
