<svg xmlns="http://www.w3.org/2000/svg" viewBox="0 0 842 200"><defs><style>.cls-1{fill:#f4797e;}.cls-2{fill:#f36e48;}.cls-3{fill:#f7a47d;}.cls-4{fill:#fcc641;}.cls-5{fill:#ffec77;}.cls-6{fill:#69c05d;}.cls-7{fill:#69c895;}.cls-8{fill:#3e7898;}.cls-9{fill:#7c8fc4;}.cls-10{fill:#7d5faa;}.cls-11{fill:#b48ec2;}.cls-12{fill:#af578d;}.cls-13{fill:#fff;}</style></defs><title>darkmodelogo</title><g id="Layer_2" data-name="Layer 2"><g id="Layer_1-2" data-name="Layer 1"><path class="cls-1" d="M55.52,120.72c-.33.7.31,1.25.65,1.8,2,3.17,3.9,6.36,6,9.46,2.18,3.27,4.45,6.44,6.87,9.48a52.48,52.48,0,0,1-6.2,8.11c-4.47,4.84-4.67,4.89-8.87,0-.34-.4-.67-.81-1-1.22-7.33-8.81-10.2-19-9.58-30.36A75.79,75.79,0,0,1,48.8,94.4,43.44,43.44,0,0,0,69,90.16a109.36,109.36,0,0,1,4.27,12.2,56,56,0,0,1,2.17,19.51c-6-.8-12-1.21-18.08-1.55C56.71,120.28,55.88,120,55.52,120.72Z"/><path class="cls-1" d="M96.85,98.69a8.15,8.15,0,0,1-.11,3.3,8.39,8.39,0,0,0-11.08,5.93,8.38,8.38,0,1,1,11.19-9.23Z"/><path class="cls-2" d="M69,90.16A43.44,43.44,0,0,1,48.8,94.4c1.42-3.61,3-7.17,4.78-10.69,1.66-3.34,3.46-6.6,5.21-9.89.3-.58.46-1.41,1.23-1.47s1,.81,1.27,1.38C64,79.13,66.68,84.57,69,90.16Z"/><path class="cls-3" d="M93.23,68.72a110.42,110.42,0,0,1-8.44,9.8A55.94,55.94,0,0,1,69,90.16c-2.3-5.59-5-11-7.69-16.43-.29-.57-.44-1.45-1.27-1.38s-.93.89-1.23,1.47c-1.75,3.29-3.55,6.55-5.21,9.89-1.74,3.52-3.36,7.08-4.78,10.69a52.12,52.12,0,0,1-10.11-1.31c-6.43-1.46-6.58-1.6-4.41-7.71.17-.49.37-1,.56-1.46,4-10.74,11.36-18.33,21.5-23.47a75.66,75.66,0,0,1,23.12-7.07A43.23,43.23,0,0,0,93.23,68.72Z"/><path class="cls-3" d="M102.26,93.66a8.4,8.4,0,0,1-2.49,3.47,8.77,8.77,0,0,1-2.92,1.56,8.37,8.37,0,0,0-10.67-6.64,8.37,8.37,0,0,1,11.26-9.2,8.17,8.17,0,0,1,2.75,1.72A8.35,8.35,0,0,1,102.26,93.66Z"/><path class="cls-4" d="M103.6,53.84c-3.31,5.07-6.68,10.1-10.37,14.88A43.23,43.23,0,0,1,79.46,53.38c3.84-.59,7.73-1,11.64-1.21,3.72-.24,7.45-.32,11.18-.44.64,0,1.45-.3,1.88.33S104,53.32,103.6,53.84Z"/><path class="cls-5" d="M130.31,59.42A43.35,43.35,0,0,0,123.91,79,110.71,110.71,0,0,1,111.2,76.6a55.67,55.67,0,0,1-18-7.88c3.69-4.78,7.06-9.81,10.37-14.88.35-.52,1-1.09.56-1.78s-1.24-.36-1.88-.33c-3.73.12-7.46.2-11.18.44-3.91.25-7.8.62-11.64,1.21A51.26,51.26,0,0,1,75.54,44c-2-6.3-1.9-6.5,4.46-7.68L81.55,36c11.3-1.93,21.55.67,31.08,6.88A75.54,75.54,0,0,1,130.31,59.42Z"/><path class="cls-5" d="M113.79,89.72a8.57,8.57,0,0,1-.12,3.24,8.39,8.39,0,0,1-6.85,6.34,8.28,8.28,0,0,1-4.24-.42,8.47,8.47,0,0,1-2.81-1.75,8.39,8.39,0,0,0,.42-12.56,8.2,8.2,0,0,1,4-1.81A8.39,8.39,0,0,1,113.79,89.72Z"/><path class="cls-6" d="M143.81,80.14c-.36.76-1.2.45-1.82.42-6.05-.34-12.09-.75-18.08-1.55a43.35,43.35,0,0,1,6.4-19.59c2.44,3,4.71,6.21,6.88,9.47,2.06,3.1,4,6.29,6,9.45C143.5,78.89,144.14,79.45,143.81,80.14Z"/><path class="cls-7" d="M156,82.91a75.79,75.79,0,0,1-5.43,23.56,43.32,43.32,0,0,0-20.18,4.25,110.07,110.07,0,0,1-4.27-12.2A55.79,55.79,0,0,1,123.91,79c6,.8,12,1.21,18.08,1.55.62,0,1.46.34,1.82-.42s-.31-1.25-.66-1.8c-2-3.16-3.9-6.35-6-9.45-2.17-3.26-4.44-6.44-6.88-9.47a52.09,52.09,0,0,1,6.21-8.11c4.47-4.85,4.67-4.9,8.87,0,.34.39.66.8,1,1.21C153.7,61.36,156.57,71.56,156,82.91Z"/><path class="cls-7" d="M116,107.31a8.27,8.27,0,0,1-2.87,1.51,8.39,8.39,0,0,1-10.56-9.94,8.28,8.28,0,0,0,4.24.42A8.39,8.39,0,0,0,113.67,93a8.23,8.23,0,0,1,3.57,2.57A8.38,8.38,0,0,1,116,107.31Z"/><path class="cls-8" d="M150.52,106.47c-1.42,3.62-3,7.17-4.78,10.69-1.65,3.33-3.45,6.6-5.2,9.9-.3.57-.47,1.4-1.23,1.46s-1-.81-1.27-1.37c-2.73-5.41-5.39-10.84-7.7-16.43A43.32,43.32,0,0,1,150.52,106.47Z"/><path class="cls-9" d="M165.05,115.49c-.18.49-.38,1-.56,1.46-4,10.75-11.36,18.33-21.5,23.47a75.44,75.44,0,0,1-23.13,7.07,43.2,43.2,0,0,0-13.76-15.34,108.68,108.68,0,0,1,8.43-9.8,55.84,55.84,0,0,1,15.81-11.63c2.31,5.59,5,11,7.7,16.43.28.56.43,1.44,1.27,1.37s.93-.89,1.23-1.46c1.75-3.3,3.55-6.57,5.2-9.9,1.75-3.52,3.36-7.07,4.78-10.69a52.32,52.32,0,0,1,10.12,1.31C167.07,109.24,167.22,109.39,165.05,115.49Z"/><path class="cls-9" d="M113.14,108.82a8.22,8.22,0,0,1-.44,4.39,8.38,8.38,0,0,1-15.64-6,8.23,8.23,0,0,1,2.5-3.46,8.52,8.52,0,0,1,2.92-1.57,8.37,8.37,0,0,0,10.66,6.64Z"/><path class="cls-10" d="M119.86,147.49c-3.84.59-7.72,1-11.64,1.22-3.72.23-7.45.31-11.17.43-.65,0-1.45.3-1.89-.33s.21-1.25.56-1.79c3.32-5.06,6.69-10.09,10.38-14.87A43.2,43.2,0,0,1,119.86,147.49Z"/><path class="cls-11" d="M119.32,164.59l-1.55.24c-11.29,1.94-21.55-.67-31.07-6.88A75.75,75.75,0,0,1,69,141.46a43.44,43.44,0,0,0,6.41-19.59,106.37,106.37,0,0,1,12.7,2.4,55.63,55.63,0,0,1,18,7.88C102.41,136.93,99,142,95.72,147c-.35.54-1,1.1-.56,1.79s1.24.36,1.89.33c3.72-.12,7.45-.2,11.17-.43,3.92-.25,7.8-.63,11.64-1.22a53.12,53.12,0,0,1,3.93,9.43C125.74,163.21,125.69,163.41,119.32,164.59Z"/><path class="cls-12" d="M75.42,121.87A43.44,43.44,0,0,1,69,141.46c-2.42-3-4.69-6.21-6.87-9.48-2.07-3.1-4-6.29-6-9.46-.34-.55-1-1.1-.65-1.8s1.19-.44,1.82-.4C63.39,120.66,69.43,121.07,75.42,121.87Z"/><path class="cls-11" d="M97.06,107.21a8.37,8.37,0,0,0,2.08,9.09,8.27,8.27,0,0,1-4,1.81,8.37,8.37,0,0,1-9.58-7,8.13,8.13,0,0,1,.12-3.23,8.37,8.37,0,0,1,13.9-4.17A8.23,8.23,0,0,0,97.06,107.21Z"/><path class="cls-4" d="M71.61,3.63C83.47.43,95.6.05,107.78,0c1.64,0,2.08.56,1.13,2-7.52,11.59-15.5,22.81-26.24,31.72q-21.65,18-48.43,9.1c-2.17-.72-2.66-1.7-2-3.89,5-15.8,15.05-26.7,30.61-32.55C65.75,5.32,68.67,4.47,71.61,3.63Z"/><path class="cls-6" d="M168.76,28.07c8.7,8.66,15.1,19,21.23,29.5.82,1.42.55,2.08-1.19,2-13.79-.71-27.5-2-40.58-6.86q-26.4-9.77-32.1-37.39c-.47-2.24.14-3.16,2.38-3.66,16.16-3.6,30.64-.31,43.49,10.23C164.36,23.83,166.56,25.94,168.76,28.07Z"/><path class="cls-12" d="M29.75,171.93c-8.7-8.66-15.09-19-21.22-29.5-.83-1.42-.56-2.08,1.18-2,13.8.71,27.5,2,40.58,6.86q26.4,9.76,32.11,37.39c.46,2.24-.14,3.16-2.38,3.66-16.17,3.6-30.65.31-43.49-10.23C34.15,176.17,32,174.06,29.75,171.93Z"/><path class="cls-2" d="M2.75,76.23C5.9,64.37,11.64,53.66,17.69,43.1c.81-1.42,1.52-1.52,2.31,0C26.28,55.43,32,68,34.35,81.71Q39.09,109.45,18,128.2c-1.71,1.53-2.8,1.46-4.36-.23C2.46,115.77-1.93,101.59.78,85.19,1.28,82.16,2,79.2,2.75,76.23Z"/><path class="cls-8" d="M196.11,124.23c-3.15,11.86-8.89,22.57-14.94,33.13-.81,1.43-1.52,1.53-2.31,0-6.28-12.3-12-24.82-14.35-38.58Q159.77,91,180.84,72.26c1.71-1.52,2.8-1.46,4.36.23,11.2,12.2,15.59,26.38,12.88,42.78C197.58,118.3,196.85,121.26,196.11,124.23Z"/><path class="cls-10" d="M126.9,196.37c-11.85,3.2-24,3.58-36.16,3.63-1.64,0-2.08-.56-1.14-2,7.52-11.59,15.5-22.81,26.24-31.72q21.66-18,48.43-9.1c2.18.72,2.67,1.7,2,3.89-5,15.8-15.05,26.7-30.61,32.55C132.77,194.68,129.84,195.53,126.9,196.37Z"/><path class="cls-13" d="M227.61,56.28H213.48V51.21h34.34v5.07H233.63V97.6h-6Z"/><path class="cls-13" d="M259,51.21V70.64H281.4V51.21h6V97.6h-6V75.84H259V97.6h-6V51.21Z"/><path class="cls-13" d="M321.82,75.85h-18V92.61H324v5H297.82V51.21h25.07v5H303.84V70.89h18Z"/><path class="cls-13" d="M345.56,51.85a87.3,87.3,0,0,1,13.52-1c8.7,0,14.63,1.81,18.9,5.36,4.51,3.67,7.27,9.2,7.27,17.07,0,8.31-2.84,14.46-7.22,18.45-4.66,4.18-12,6.32-21,6.32a93,93,0,0,1-11.46-.61ZM354,91.13a31.36,31.36,0,0,0,4.72.23c11,.06,17.55-6,17.55-17.79.05-10.23-5.85-16.13-16.49-16.13a28.46,28.46,0,0,0-5.78.5Z"/><path class="cls-13" d="M418.52,77H401V90.63h19.54v7h-28V51.21h27v7H401V70.11h17.48Z"/><path class="cls-13" d="M428,51.85a71.05,71.05,0,0,1,12.37-1c6.22,0,10.11.81,13.27,2.95a9.89,9.89,0,0,1,4.79,8.72c0,4.27-2.66,8.16-7.72,10v.18c4.9,1.24,9.39,5.1,9.39,11.49a12.24,12.24,0,0,1-4.44,9.58c-3.31,2.85-8.74,4.28-17.24,4.28A80.68,80.68,0,0,1,428,97.44Zm8.41,18.32h4.34c5.88,0,9.14-2.77,9.14-6.69,0-4.36-3.3-6.36-8.63-6.36a23.1,23.1,0,0,0-4.85.37Zm0,21.27a26.88,26.88,0,0,0,4.48.24c5.42,0,10.3-2,10.3-7.76,0-5.39-4.75-7.6-10.57-7.61h-4.21Z"/><path class="cls-13" d="M476.73,84.49l-4,13.11H464L478.9,51.21h10.79L504.76,97.6h-9.1l-4.19-13.11Zm13.34-6.41-3.66-11.43c-.89-2.87-1.66-6-2.36-8.72h-.15c-.67,2.73-1.38,5.94-2.2,8.7l-3.58,11.45Z"/><path class="cls-13" d="M514.53,58.33H501.29V51.21h35.09v7.12H523V97.6h-8.48Z"/><path class="cls-13" d="M567.71,77H550.23V90.63h19.54v7h-28V51.21h27v7H550.23V70.11h17.48Z"/><path class="cls-13" d="M591.27,88.36a23.53,23.53,0,0,0,11.21,3c5.41,0,8.43-2.54,8.43-6.33,0-3.5-2.35-5.56-8.22-7.69-7.66-2.72-12.55-6.83-12.55-13.48,0-7.6,6.35-13.32,16.41-13.32a24.53,24.53,0,0,1,11.12,2.3l-2,6.83a20.07,20.07,0,0,0-9.27-2.2c-5.38,0-7.66,2.86-7.66,5.59,0,3.55,2.68,5.23,8.87,7.59,8.06,3.08,11.93,7.12,11.93,13.79,0,7.46-5.62,13.93-17.59,13.93-4.9,0-10-1.4-12.53-2.95Z"/><path class="cls-13" d="M668.33,73.94c0,15.53-9.42,24.41-22.2,24.41-13.1,0-21.4-10-21.4-23.59,0-14.24,9-24.3,22.09-24.3C660.35,50.46,668.33,60.68,668.33,73.94Zm-34.65.65c0,9.47,4.78,17,12.88,17S659.38,84,659.38,74.26c0-8.76-4.34-17-12.8-17S633.68,65.06,633.68,74.59Z"/><path class="cls-13" d="M708.89,96.23c-2,1-6.42,2.09-12,2.09-14.72,0-23.68-9.24-23.68-23.36,0-15.25,10.65-24.47,24.83-24.47,5.58,0,9.52,1.13,11.23,2L707.4,59.3a21.9,21.9,0,0,0-9-1.82c-9.46,0-16.26,5.9-16.26,17.06,0,10.22,6,16.69,16.15,16.69a24.68,24.68,0,0,0,9.24-1.68Z"/><path class="cls-13" d="M724.53,51.21V97.6h-8.48V51.21Z"/><path class="cls-13" d="M760.18,77H742.7V90.63h19.54v7h-28V51.21h27v7H742.7V70.11h17.48Z"/><path class="cls-13" d="M779.25,58.33H766V51.21H801.1v7.12H787.73V97.6h-8.48Z"/><path class="cls-13" d="M818.12,97.6V78.29L803.44,51.21h9.7l5.52,11.91c1.58,3.41,2.78,6,4.05,9.19h.14c1.14-3,2.47-5.82,4-9.21l5.58-11.89H842L826.6,78.06V97.6Z"/><path class="cls-13" d="M228.46,119.07v29.86h-4V119.07Z"/><path class="cls-13" d="M239.67,119.07v29.86h-4V119.07Z"/><path class="cls-13" d="M250.87,119.07v29.86h-4V119.07Z"/><path class="cls-13" d="M264.48,122.39h-10.3v-3.32h24.7v3.32H268.52v26.54h-4Z"/><path class="cls-13" d="M296.4,119.07v12.4h16.46v-12.4h4v29.86h-4v-14H296.4v14h-4V119.07Z"/><path class="cls-13" d="M331.1,148.93V136.26l-10.43-17.19h4.68l4.71,8.5c1.27,2.33,2.22,4,3.22,6h.09c.9-1.85,2-3.7,3.27-5.95l4.9-8.52h4.63l-11,17.16v12.7Z"/><path class="cls-13" d="M349.37,119.47a68.74,68.74,0,0,1,9.42-.66c6.32,0,10.86,1.48,13.79,4.25a13.12,13.12,0,0,1,4.3,10.21,15.55,15.55,0,0,1-4.54,11.28c-3.12,3-8.31,4.67-14.88,4.67a77.56,77.56,0,0,1-8.09-.35Zm4,26.33a33.25,33.25,0,0,0,4.74.22c9.76,0,14.49-5.21,14.49-12.59.06-6.89-4.49-11.45-13.74-11.45a28.53,28.53,0,0,0-5.49.47Z"/><path class="cls-13" d="M399.13,135H386.19v10.64h14.42v3.3H382.15V119.07h17.73v3.3H386.19v9.33h12.94Z"/><path class="cls-13" d="M405.94,119.47a49.92,49.92,0,0,1,8.25-.66c4.48,0,7.33.83,9.3,2.56a7.36,7.36,0,0,1,2.42,5.63,7.92,7.92,0,0,1-5.91,7.58v.11c2.31.84,3.75,3,4.5,5.83,1.08,4.2,1.82,7.16,2.49,8.41h-4.17a39,39,0,0,1-2.08-7.07c-1-4.09-2.69-5.69-6.38-5.85H410v12.92h-4ZM410,133h4.77c4.42,0,7.18-2.2,7.18-5.57,0-4-3.27-5.55-7.46-5.55a20.06,20.06,0,0,0-4.49.4Z"/><path class="cls-13" d="M437.12,139.4l-3.45,9.53h-4.23l11.26-29.86h4.93L457,148.93h-4.37L449,139.4Zm11-3.11-3.43-8.92c-.71-1.9-1.18-3.45-1.65-5H443c-.45,1.58-.93,3.16-1.57,4.92l-3.4,9Z"/><path class="cls-13" d="M461.57,119.47a42.68,42.68,0,0,1,7.73-.66c4.26,0,6.79.68,8.73,2.2a6.25,6.25,0,0,1,2.68,5.34c0,2.83-2,5.41-5.21,6.51V133c2.64.6,6.38,2.8,6.38,7.45a7.62,7.62,0,0,1-2.7,5.95c-2.17,1.94-5.73,2.84-11.11,2.84a61,61,0,0,1-6.5-.35Zm4,12.23h4.19c4.45,0,6.84-2.15,6.84-5,0-3.7-3.07-4.86-7.06-4.86a19.21,19.21,0,0,0-4,.3Zm0,14.21a21.12,21.12,0,0,0,3.75.21c4.17,0,8.31-1.26,8.31-5.77,0-4-3.74-5.65-8.28-5.65h-3.78Z"/><path class="cls-13" d="M492.67,139.4l-3.46,9.53H485l11.27-29.86h4.92l11.39,29.86h-4.38l-3.61-9.53Zm11-3.11-3.42-8.92c-.72-1.9-1.19-3.45-1.66-5h-.08c-.46,1.58-.93,3.16-1.58,4.92l-3.4,9Z"/><path class="cls-13" d="M517.11,119.47a68.74,68.74,0,0,1,9.42-.66c6.32,0,10.85,1.48,13.79,4.25a13.11,13.11,0,0,1,4.29,10.21,15.54,15.54,0,0,1-4.53,11.28c-3.12,3-8.31,4.67-14.88,4.67a77.56,77.56,0,0,1-8.09-.35Zm4,26.33a33.25,33.25,0,0,0,4.74.22c9.76,0,14.48-5.21,14.48-12.59.07-6.89-4.48-11.45-13.73-11.45a28.44,28.44,0,0,0-5.49.47Z"/></g></g></svg>