<svg xmlns="http://www.w3.org/2000/svg" viewBox="0 0 318.18 320"><defs><style>.cls-1{fill:#f4797e;}.cls-2{fill:#f36e48;}.cls-3{fill:#f7a47d;}.cls-4{fill:#fcc641;}.cls-5{fill:#ffec77;}.cls-6{fill:#69c05d;}.cls-7{fill:#69c895;}.cls-8{fill:#3e7898;}.cls-9{fill:#7c8fc4;}.cls-10{fill:#7d5faa;}.cls-11{fill:#b48ec2;}.cls-12{fill:#af578d;}</style></defs><title>debsocsmall</title><g id="Layer_2" data-name="Layer 2"><g id="Layer_1-2" data-name="Layer 1"><path class="cls-1" d="M88.83,193.16c-.53,1.11.5,2,1,2.88,3.15,5.06,6.24,10.17,9.55,15.13,3.48,5.23,7.11,10.31,11,15.16a84.27,84.27,0,0,1-9.92,13c-7.16,7.74-7.48,7.83-14.2-.05-.54-.64-1.06-1.3-1.58-1.95C73,223.21,68.41,206.9,69.4,188.74c.72-13.23,4-25.68,8.69-37.7a69.51,69.51,0,0,0,32.28-6.79,174.06,174.06,0,0,1,6.83,19.52A89.37,89.37,0,0,1,120.67,195c-9.58-1.28-19.25-1.94-28.92-2.48C90.74,192.45,89.41,192,88.83,193.16Z"/><path class="cls-1" d="M155,157.9a13.45,13.45,0,0,1-.17,5.29,13.4,13.4,0,0,0-17.73,9.48A13.4,13.4,0,1,1,155,157.9Z"/><path class="cls-2" d="M110.37,144.25A69.51,69.51,0,0,1,78.09,151c2.26-5.78,4.85-11.47,7.64-17.1,2.65-5.34,5.53-10.57,8.33-15.83.49-.92.75-2.25,2-2.35s1.58,1.3,2,2.2C102.43,126.61,106.69,135.31,110.37,144.25Z"/><path class="cls-3" d="M149.17,110a174.66,174.66,0,0,1-13.5,15.68,89.48,89.48,0,0,1-25.3,18.62c-3.68-8.94-7.94-17.64-12.31-26.29-.45-.9-.69-2.31-2-2.2s-1.48,1.43-2,2.35c-2.8,5.26-5.68,10.49-8.33,15.83-2.79,5.63-5.38,11.32-7.64,17.1a84.31,84.31,0,0,1-16.19-2.1c-10.28-2.33-10.52-2.56-7-12.33.28-.78.59-1.56.89-2.34C62.1,117.08,73.92,105,90.14,96.72c11.82-6,24.24-9.38,37-11.32A69.2,69.2,0,0,0,149.17,110Z"/><path class="cls-3" d="M163.62,149.86a13.33,13.33,0,0,1-4,5.54,13.54,13.54,0,0,1-4.67,2.5,13.39,13.39,0,0,0-17.07-10.62,13.4,13.4,0,1,1,25.73,2.58Z"/><path class="cls-4" d="M165.77,86.15c-5.3,8.1-10.7,16.15-16.6,23.8a69.2,69.2,0,0,1-22-24.55c6.14-.93,12.36-1.53,18.63-1.93,5.95-.38,11.92-.51,17.88-.71,1,0,2.32-.48,3,.53S166.33,85.31,165.77,86.15Z"/><path class="cls-5" d="M208.5,95.07a69.39,69.39,0,0,0-10.24,31.34,177.1,177.1,0,0,1-20.33-3.85A89.05,89.05,0,0,1,149.17,110c5.9-7.65,11.3-15.7,16.6-23.8.56-.84,1.66-1.75.89-2.86s-2-.57-3-.53c-6,.2-11.93.33-17.88.71-6.27.4-12.49,1-18.63,1.93a83,83,0,0,1-6.28-15.07c-3.12-10.08-3-10.39,7.15-12.28.82-.15,1.65-.26,2.48-.39,18.07-3.09,34.48,1.08,49.72,11C191.31,75.92,200.45,85,208.5,95.07Z"/><path class="cls-5" d="M182.06,143.55a13.38,13.38,0,0,1-11.14,15.33,13.25,13.25,0,0,1-6.79-.68,13.42,13.42,0,0,1-4.5-2.8,13.4,13.4,0,0,0,.67-20.09,13.2,13.2,0,0,1,6.43-2.89A13.39,13.39,0,0,1,182.06,143.55Z"/><path class="cls-6" d="M230.1,128.23c-.58,1.21-1.92.72-2.92.66-9.67-.54-19.34-1.2-28.92-2.48A69.39,69.39,0,0,1,208.5,95.07c3.9,4.85,7.53,9.93,11,15.15,3.3,5,6.39,10.07,9.55,15.13C229.6,126.23,230.62,127.12,230.1,128.23Z"/><path class="cls-7" d="M249.53,132.65c-.72,13.23-4,25.68-8.7,37.7a69.36,69.36,0,0,0-32.28,6.8,174.77,174.77,0,0,1-6.83-19.52,89.12,89.12,0,0,1-3.46-31.22c9.58,1.28,19.25,1.94,28.92,2.48,1,.06,2.34.55,2.92-.66s-.5-2-1-2.88c-3.16-5.06-6.25-10.16-9.55-15.13-3.47-5.22-7.1-10.3-11-15.15a83.73,83.73,0,0,1,9.93-13c7.16-7.75,7.47-7.84,14.2,0,.54.63,1.05,1.29,1.58,1.94C245.92,98.18,250.52,114.49,249.53,132.65Z"/><path class="cls-7" d="M185.61,171.69a13.4,13.4,0,0,1-21.65-8.2,13.65,13.65,0,0,1,.17-5.29,13.25,13.25,0,0,0,6.79.68,13.41,13.41,0,0,0,11-10.15,13.4,13.4,0,0,1,3.74,23Z"/><path class="cls-8" d="M240.83,170.35c-2.26,5.79-4.85,11.47-7.64,17.1-2.64,5.34-5.52,10.57-8.32,15.84-.49.91-.75,2.25-2,2.34s-1.58-1.3-2-2.19c-4.37-8.65-8.63-17.35-12.32-26.29A69.36,69.36,0,0,1,240.83,170.35Z"/><path class="cls-9" d="M264.08,184.78c-.28.79-.6,1.56-.9,2.34-6.35,17.2-18.17,29.33-34.39,37.55-11.82,6-24.25,9.38-37,11.32a69.26,69.26,0,0,0-22-24.55,176,176,0,0,1,13.49-15.68,89.25,89.25,0,0,1,25.3-18.61c3.69,8.94,7.95,17.64,12.32,26.29.45.89.69,2.3,2,2.19s1.48-1.43,2-2.34c2.8-5.27,5.68-10.5,8.32-15.84,2.79-5.63,5.38-11.31,7.64-17.1a83.62,83.62,0,0,1,16.19,2.1C267.31,174.79,267.55,175,264.08,184.78Z"/><path class="cls-9" d="M181,174.12A13.4,13.4,0,1,1,159.29,166a13.71,13.71,0,0,1,4.67-2.5A13.41,13.41,0,0,0,181,174.12Z"/><path class="cls-10" d="M191.78,236c-6.14.94-12.35,1.54-18.62,1.94-5.95.37-11.92.5-17.88.7-1,0-2.32.48-3-.53s.34-2,.89-2.86c5.31-8.1,10.71-16.15,16.61-23.8A69.26,69.26,0,0,1,191.78,236Z"/><path class="cls-11" d="M190.91,263.34c-.82.15-1.65.26-2.47.39-18.07,3.1-34.49-1.07-49.72-11-11.1-7.24-20.24-16.31-28.3-26.39A69.32,69.32,0,0,0,120.67,195,172.31,172.31,0,0,1,141,198.83a89,89,0,0,1,28.77,12.61c-5.9,7.65-11.3,15.7-16.61,23.8-.55.85-1.65,1.75-.89,2.86s2,.57,3,.53c6-.2,11.93-.33,17.88-.7,6.27-.4,12.48-1,18.62-1.94a84.08,84.08,0,0,1,6.28,15.08C201.19,261.14,201.1,261.46,190.91,263.34Z"/><path class="cls-12" d="M120.67,195a69.32,69.32,0,0,1-10.25,31.34c-3.88-4.85-7.51-9.93-11-15.16-3.31-5-6.4-10.07-9.55-15.13-.55-.88-1.58-1.77-1-2.88s1.91-.71,2.92-.65C101.42,193.05,111.09,193.71,120.67,195Z"/><path class="cls-11" d="M155.3,171.53a13.4,13.4,0,0,0,3.32,14.55,13.39,13.39,0,0,1-21.76-8.24,13.16,13.16,0,0,1,.2-5.17,13.4,13.4,0,0,1,17.73-9.48,13.74,13.74,0,0,1,4.5,2.8A13.39,13.39,0,0,0,155.3,171.53Z"/><path class="cls-4" d="M114.58,5.8C133.55.69,153,.08,172.44,0c2.63,0,3.33.89,1.81,3.23-12,18.55-24.79,36.49-42,50.75Q97.63,82.74,54.79,68.55c-3.48-1.16-4.27-2.73-3.17-6.23,7.94-25.29,24.08-42.71,49-52.08C105.19,8.51,109.87,7.15,114.58,5.8Z"/><path class="cls-6" d="M270,44.91c13.91,13.86,24.15,30.38,34,47.21,1.32,2.26.89,3.32-1.9,3.18-22.07-1.14-44-3.23-64.93-11Q194.93,68.69,185.79,24.5c-.74-3.59.22-5.06,3.8-5.86,25.87-5.77,49-.5,69.59,16.37C263,38.13,266.5,41.5,270,44.91Z"/><path class="cls-12" d="M47.6,275.09c-13.92-13.86-24.15-30.38-34-47.21-1.32-2.26-.89-3.32,1.9-3.18,22.07,1.14,44,3.23,64.93,11q42.23,15.63,51.36,59.82c.74,3.59-.22,5.06-3.8,5.86-25.87,5.77-49,.5-69.59-16.37C54.64,281.87,51.12,278.5,47.6,275.09Z"/><path class="cls-2" d="M4.39,122C9.45,103,18.63,85.86,28.3,69c1.3-2.28,2.43-2.44,3.7.05,10,19.68,19.21,39.72,23,61.72q7.58,44.39-26.13,74.39c-2.74,2.44-4.5,2.34-7-.37C3.93,185.24-3.09,162.54,1.25,136.31,2.05,131.45,3.21,126.72,4.39,122Z"/><path class="cls-8" d="M313.78,198.77c-5,19-14.24,36.1-23.91,53-1.3,2.28-2.43,2.44-3.7-.05C276.12,232.05,267,212,263.21,190q-7.57-44.38,26.13-74.4c2.74-2.43,4.49-2.33,7,.37,17.94,19.52,25,42.21,20.62,68.45C316.13,189.28,315,194,313.78,198.77Z"/><path class="cls-10" d="M203,314.2c-19,5.11-38.39,5.72-57.86,5.8-2.63,0-3.33-.89-1.81-3.23,12-18.55,24.79-36.49,42-50.75q34.65-28.75,77.49-14.57c3.48,1.16,4.27,2.73,3.17,6.23-7.94,25.29-24.08,42.71-49,52.08C212.43,311.49,207.75,312.85,203,314.2Z"/></g></g></svg>