<svg width="24" height="20" viewBox="0 0 24 20" fill="none" xmlns="http://www.w3.org/2000/svg">
<path d="M11.6713 0C11.2338 -6.5189e-09 10.8006 0.0861672 10.3965 0.253582C9.99227 0.420997 9.62503 0.666381 9.31569 0.975723C9.00635 1.28507 8.76096 1.65231 8.59355 2.05648C8.42613 2.46066 8.33997 2.89385 8.33997 3.33133C8.33997 3.7688 8.42613 4.202 8.59355 4.60617C8.76096 5.01035 9.00635 5.37759 9.31569 5.68693C9.62503 5.99627 9.99227 6.24166 10.3965 6.40907C10.8006 6.57649 11.2338 6.66266 11.6713 6.66266C12.5548 6.66266 13.4022 6.31168 14.0269 5.68693C14.6516 5.06219 15.0026 4.21485 15.0026 3.33133C15.0026 2.4478 14.6516 1.60047 14.0269 0.975723C13.4022 0.350978 12.5548 0 11.6713 0Z" fill="black"/>
<path d="M19.1743 1.66394C18.511 1.66394 17.8749 1.92744 17.4059 2.39647C16.9368 2.8655 16.6733 3.50164 16.6733 4.16494C16.6733 4.82825 16.9368 5.46439 17.4059 5.93342C17.8749 6.40245 18.511 6.66595 19.1743 6.66595C19.8376 6.66595 20.4738 6.40245 20.9428 5.93342C21.4118 5.46439 21.6753 4.82825 21.6753 4.16494C21.6753 3.50164 21.4118 2.8655 20.9428 2.39647C20.4738 1.92744 19.8376 1.66394 19.1743 1.66394Z" fill="black"/>
<path d="M4.16833 1.66394C3.50503 1.66394 2.8689 1.92744 2.39988 2.39647C1.93085 2.8655 1.66736 3.50164 1.66736 4.16494C1.66736 4.82825 1.93085 5.46439 2.39988 5.93342C2.8689 6.40245 3.50503 6.66595 4.16833 6.66595C4.83164 6.66595 5.46777 6.40245 5.93679 5.93342C6.40582 5.46439 6.66931 4.82825 6.66931 4.16494C6.66931 3.50164 6.40582 2.8655 5.93679 2.39647C5.46777 1.92744 4.83164 1.66394 4.16833 1.66394Z" fill="black"/>
<path d="M6.66931 9.98897C6.67239 9.5488 6.84942 9.12769 7.16177 8.81753C7.47412 8.50736 7.89646 8.3333 8.33665 8.33331H15.006C15.4482 8.33331 15.8723 8.50898 16.185 8.82166C16.4977 9.13435 16.6733 9.55844 16.6733 10.0006V15.0026C16.6732 15.5274 16.5911 16.0489 16.4299 16.5483C16.0607 17.6799 15.3002 18.6428 14.2849 19.2642C13.2696 19.8855 12.0661 20.1246 10.8904 19.9384C9.71471 19.7522 8.64391 19.153 7.87026 18.2484C7.09662 17.3438 6.67082 16.193 6.66931 15.0026V10.0006V9.98897Z" fill="black"/>
<path d="M5.00199 10.0006C5.00199 9.39207 5.16372 8.82351 5.44883 8.33331H1.66733C1.22513 8.33331 0.801034 8.50898 0.48835 8.82166C0.175665 9.13435 2.3078e-07 9.55844 2.3078e-07 10.0006V14.169C-0.000226836 14.8514 0.16711 15.5235 0.487315 16.1261C0.80752 16.7288 1.2708 17.2436 1.83647 17.6254C2.40213 18.0072 3.05289 18.2442 3.73158 18.3157C4.41027 18.3873 5.09613 18.291 5.72894 18.0355C5.24905 17.0961 4.99985 16.0559 5.00199 15.001V10.0006Z" fill="black"/>
<path d="M18.3407 10.0006V15.0026C18.3407 16.0947 18.0789 17.1252 17.6137 18.0355C18.2465 18.291 18.9324 18.3873 19.6111 18.3157C20.2898 18.2442 20.9405 18.0072 21.5062 17.6254C22.0719 17.2436 22.5351 16.7288 22.8553 16.1261C23.1755 15.5235 23.3429 14.8514 23.3427 14.169V10.0006C23.3427 9.55844 23.167 9.13435 22.8543 8.82166C22.5416 8.50898 22.1175 8.33331 21.6753 8.33331H17.8938C18.1773 8.82351 18.3407 9.39207 18.3407 10.0006Z" fill="black"/>
</svg>
